<svg width="476" height="128" viewBox="0 0 476 128" fill="none" xmlns="http://www.w3.org/2000/svg">
<path d="M80.0406 62.5708C87.0083 62.8075 92.7404 64.1845 96.1919 67" stroke="white" stroke-width="5" stroke-linejoin="round"/>
<path d="M445.349 0C461.918 5.79834e-07 475.349 13.4315 475.349 30V98C475.349 114.569 461.918 128 445.349 128H68.3492C51.7807 128 38.3492 114.569 38.3492 98V30C38.3492 13.4315 51.7807 5.79834e-07 68.3492 0H445.349ZM81.8492 50C74.9457 50 69.3492 56.0442 69.3492 63.5C69.3492 70.9558 74.9457 77 81.8492 77C88.7528 77 94.3492 70.9558 94.3492 63.5C94.3492 56.0442 88.7528 50 81.8492 50Z" fill="#A72925"/>
<path d="M6.19167 101.5L4.22162 103.039L6.19167 101.5ZM457.262 104.719L446.411 87.4298L429.121 98.2808L439.972 115.57L457.262 104.719ZM6.19167 101.5L8.16172 99.9609C6.76932 98.1786 6.3584 96.5165 6.54088 94.9217C6.73223 93.2495 7.61192 91.3655 9.32884 89.3073C12.7927 85.1548 19.1242 80.9374 27.1542 77.1784C43.1701 69.6812 64.7399 64.5525 79.9557 65.0695L80.0406 62.5709L80.1255 60.0723C63.9527 59.5228 41.5966 64.897 25.0344 72.65C16.7755 76.5162 9.65484 81.1109 5.48931 86.1045C3.39152 88.6193 1.91215 91.392 1.57329 94.3533C1.22557 97.3922 2.1133 100.341 4.22162 103.039L6.19167 101.5ZM443.191 101.5L443.749 99.063C346.052 76.7106 242.685 84.7629 160.839 94.3293C119.819 99.1238 84.3618 104.277 57.4854 106.249C44.0556 107.234 32.9437 107.408 24.4703 106.38C15.8595 105.336 10.6306 103.121 8.16172 99.9609L6.19167 101.5L4.22162 103.039C8.00275 107.879 15.0395 110.273 23.8683 111.344C32.8344 112.432 44.3357 112.227 57.8512 111.235C84.8655 109.254 120.627 104.063 161.42 99.2955C243.198 89.7369 345.831 81.7893 442.634 103.937L443.191 101.5Z" fill="white"/>
<path d="M187.509 36.928C188.021 40.0427 188.277 43.0507 188.277 45.952C188.277 52.3093 187.253 58.112 185.205 63.36C183.157 68.608 180.491 72.7467 177.205 75.776C173.92 78.8053 170.571 80.32 167.157 80.32C165.451 80.32 163.467 79.7013 161.205 78.464C158.987 77.184 157.067 75.6693 155.445 73.92C153.824 72.128 153.013 70.5493 153.013 69.184C153.013 66.1973 153.525 61.3973 154.549 54.784C155.573 48.1707 156.789 42.432 158.197 37.568C159.605 36.8853 161.077 36.544 162.613 36.544C164.235 36.544 165.643 36.992 166.837 37.888C168.032 38.7413 168.843 39.9573 169.269 41.536C168.032 44.3947 166.816 48.4267 165.621 53.632C164.469 58.8373 163.893 63.0827 163.893 66.368C163.893 69.568 164.512 71.168 165.749 71.168C167.584 71.168 169.376 69.9947 171.125 67.648C172.875 65.2587 174.304 62.1867 175.413 58.432C176.523 54.6347 177.077 50.7947 177.077 46.912C177.077 44.0107 176.736 41.28 176.053 38.72C178.187 36.3733 180.448 35.2 182.837 35.2C184.501 35.2 186.059 35.776 187.509 36.928ZM224.161 66.496C226.038 67.136 227.425 68.032 228.321 69.184C229.259 70.2933 229.729 71.5733 229.729 73.024C229.729 74.048 229.003 75.1147 227.553 76.224C226.102 77.2907 224.374 78.1867 222.369 78.912C220.363 79.6373 218.657 80 217.249 80C216.267 80 215.137 79.616 213.857 78.848C212.577 78.08 211.467 77.2053 210.529 76.224C209.633 75.2 209.185 74.4107 209.185 73.856C209.185 73.4293 209.654 71.7653 210.593 68.864C212.257 63.7867 213.089 60.5867 213.089 59.264C213.089 58.752 212.961 58.496 212.705 58.496C210.998 58.496 207.819 61.4827 203.169 67.456C202.998 68.1387 202.806 68.992 202.593 70.016C202.422 71.04 202.294 71.7653 202.209 72.192C201.739 74.7093 201.291 76.6507 200.865 78.016C200.481 79.3387 199.969 80 199.329 80C198.219 80 196.961 79.6373 195.553 78.912C194.187 78.144 192.993 77.2693 191.969 76.288C190.987 75.264 190.497 74.4107 190.497 73.728C190.497 72.96 190.774 71.8293 191.329 70.336C191.883 68.8427 192.715 66.7947 193.825 64.192C194.678 62.1867 195.318 60.6293 195.745 59.52C196.171 58.368 196.385 57.5573 196.385 57.088C196.385 56.7467 196.171 56.384 195.745 56C195.361 55.5733 194.763 55.0613 193.953 54.464C193.014 53.7387 192.31 53.1627 191.841 52.736C191.414 52.3093 191.201 51.8613 191.201 51.392C191.201 50.496 191.606 49.4507 192.417 48.256C193.27 47.0613 194.251 46.0373 195.361 45.184C196.513 44.3307 197.494 43.904 198.305 43.904C199.201 43.904 200.225 44.3093 201.377 45.12C202.571 45.9307 203.595 46.8693 204.449 47.936C205.345 48.96 205.793 49.7493 205.793 50.304C205.793 51.328 205.665 52.5867 205.409 54.08C205.195 55.5733 204.897 57.0453 204.513 58.496C207.627 54.4 210.209 51.2427 212.257 49.024C214.305 46.7627 215.905 45.632 217.057 45.632C217.867 45.632 218.849 46.0373 220.001 46.848C221.153 47.6587 222.134 48.5973 222.945 49.664C223.798 50.688 224.225 51.4773 224.225 52.032C224.182 52.7573 223.883 53.9947 223.329 55.744C222.774 57.4933 221.985 59.8187 220.961 62.72C219.595 66.4747 218.721 69.0133 218.337 70.336C219.659 69.6533 220.683 69.0773 221.409 68.608C222.177 68.096 223.094 67.392 224.161 66.496ZM245.931 42.048C245.12 42.048 244.139 41.728 242.987 41.088C241.877 40.4053 240.917 39.616 240.107 38.72C239.296 37.7813 238.891 36.9493 238.891 36.224C238.891 35.072 239.189 33.92 239.787 32.768C240.384 31.616 241.131 30.784 242.027 30.272C242.453 30.0587 243.136 29.952 244.075 29.952C245.611 29.952 247.147 30.2933 248.683 30.976C250.261 31.6587 251.221 32.512 251.563 33.536C251.648 33.7493 251.691 34.0693 251.691 34.496C251.691 35.4773 251.392 36.5653 250.795 37.76C250.197 38.9547 249.451 39.9787 248.555 40.832C247.659 41.6427 246.784 42.048 245.931 42.048ZM241.579 80C240.469 80 239.211 79.6373 237.803 78.912C236.437 78.144 235.243 77.2693 234.219 76.288C233.237 75.264 232.747 74.4107 232.747 73.728C232.747 72.96 233.024 71.8293 233.579 70.336C234.133 68.8427 234.965 66.7947 236.075 64.192C236.928 62.1867 237.568 60.6293 237.995 59.52C238.421 58.368 238.635 57.5573 238.635 57.088C238.635 56.7467 238.421 56.384 237.995 56C237.611 55.5733 237.013 55.0613 236.203 54.464C235.264 53.7387 234.56 53.1627 234.091 52.736C233.664 52.3093 233.451 51.8613 233.451 51.392C233.451 50.496 233.856 49.4507 234.667 48.256C235.52 47.0613 236.501 46.0373 237.611 45.184C238.763 44.3307 239.744 43.904 240.555 43.904C241.536 43.904 242.603 44.3307 243.755 45.184C244.949 46.0373 245.952 47.0613 246.763 48.256C247.616 49.408 248.043 50.3467 248.043 51.072C248.043 52.9493 247.552 55.6373 246.571 59.136C245.632 62.592 244.416 66.3253 242.923 70.336C243.947 69.8667 244.843 69.376 245.611 68.864C246.379 68.352 247.445 67.5627 248.811 66.496C250.731 67.136 252.139 68.0533 253.035 69.248C253.931 70.4 254.379 71.6587 254.379 73.024C254.379 74.1333 253.653 75.2213 252.203 76.288C250.795 77.3547 249.067 78.2507 247.019 78.976C244.971 79.6587 243.157 80 241.579 80ZM283.036 59.584C285.937 60.0533 288.156 61.0133 289.692 62.464C291.228 63.872 291.996 65.5147 291.996 67.392C291.996 69.4827 291.014 71.5307 289.052 73.536C287.132 75.5413 284.465 77.184 281.052 78.464C277.681 79.7013 273.969 80.32 269.916 80.32C268.678 80.32 267.249 79.8293 265.628 78.848C264.049 77.8667 262.684 76.736 261.532 75.456C260.422 74.1333 259.868 73.024 259.868 72.128C259.868 71.3173 260.785 66.624 262.62 58.048C263.985 51.648 264.881 47.232 265.308 44.8L263.068 45.12C261.66 43.6267 260.956 41.9413 260.956 40.064C260.956 38.6987 261.34 37.3973 262.108 36.16C265.82 35.3067 268.956 34.88 271.516 34.88C275.398 34.88 279.004 35.4987 282.332 36.736C285.66 37.9733 288.305 39.616 290.268 41.664C292.23 43.712 293.212 45.9093 293.212 48.256C293.212 50.6027 292.316 52.8213 290.524 54.912C288.774 56.96 286.278 58.5173 283.036 59.584ZM272.604 56.512C276.273 56 279.068 55.0827 280.988 53.76C282.95 52.3947 283.932 50.816 283.932 49.024C283.932 47.7867 283.249 46.7413 281.884 45.888C280.561 44.992 278.812 44.544 276.636 44.544C275.74 44.544 275.036 44.5867 274.524 44.672C274.225 46.592 274.012 47.9147 273.884 48.64C273.457 51.6693 273.03 54.2933 272.604 56.512ZM269.34 72.576C273.222 72.32 276.124 71.5947 278.044 70.4C280.006 69.2053 280.988 67.7333 280.988 65.984C280.988 65.0027 280.604 64.1707 279.836 63.488C279.11 62.8053 277.98 62.3787 276.444 62.208C275.121 62.1227 273.692 62.208 272.156 62.464L271.772 63.872C270.662 67.6267 269.852 70.528 269.34 72.576ZM310.766 43.84C313.795 44.1813 316.547 45.0987 319.022 46.592C321.539 48.0427 323.502 49.792 324.91 51.84C326.318 53.888 327.022 55.936 327.022 57.984C327.022 61.056 326.232 64.32 324.654 67.776C323.075 71.232 320.878 74.1333 318.062 76.48C315.246 78.8267 312.11 80 308.654 80C306.947 80 305.134 79.3813 303.214 78.144C301.294 76.864 299.672 75.328 298.35 73.536C297.07 71.7013 296.43 70.08 296.43 68.672C296.43 66.0693 296.75 63.4027 297.39 60.672C298.03 57.8987 299.011 55.2107 300.334 52.608C301.571 51.9253 302.808 51.584 304.046 51.584C304.6 51.584 305.112 51.648 305.582 51.776C305.411 51.264 305.326 50.6667 305.326 49.984C305.326 48.6187 305.795 47.3813 306.734 46.272C307.715 45.1627 309.059 44.352 310.766 43.84ZM306.35 72.704C309.891 71.5093 312.643 69.4613 314.606 66.56C316.568 63.6587 317.87 60.2027 318.51 56.192C316.59 54.8267 313.987 54.144 310.702 54.144C309.891 54.144 309.272 54.1653 308.846 54.208C309.315 55.0613 309.55 56.0213 309.55 57.088C308.44 58.8373 307.587 60.7787 306.99 62.912C306.392 65.0027 306.094 67.1147 306.094 69.248C306.094 70.528 306.179 71.68 306.35 72.704ZM344.391 43.84C347.42 44.1813 350.172 45.0987 352.647 46.592C355.164 48.0427 357.127 49.792 358.535 51.84C359.943 53.888 360.647 55.936 360.647 57.984C360.647 61.056 359.857 64.32 358.279 67.776C356.7 71.232 354.503 74.1333 351.687 76.48C348.871 78.8267 345.735 80 342.279 80C340.572 80 338.759 79.3813 336.839 78.144C334.919 76.864 333.297 75.328 331.975 73.536C330.695 71.7013 330.055 70.08 330.055 68.672C330.055 66.0693 330.375 63.4027 331.015 60.672C331.655 57.8987 332.636 55.2107 333.959 52.608C335.196 51.9253 336.433 51.584 337.671 51.584C338.225 51.584 338.737 51.648 339.207 51.776C339.036 51.264 338.951 50.6667 338.951 49.984C338.951 48.6187 339.42 47.3813 340.359 46.272C341.34 45.1627 342.684 44.352 344.391 43.84ZM339.975 72.704C343.516 71.5093 346.268 69.4613 348.231 66.56C350.193 63.6587 351.495 60.2027 352.135 56.192C350.215 54.8267 347.612 54.144 344.327 54.144C343.516 54.144 342.897 54.1653 342.471 54.208C342.94 55.0613 343.175 56.0213 343.175 57.088C342.065 58.8373 341.212 60.7787 340.615 62.912C340.017 65.0027 339.719 67.1147 339.719 69.248C339.719 70.528 339.804 71.68 339.975 72.704ZM375.749 58.048C378.864 53.9093 381.339 50.816 383.173 48.768C385.008 46.6773 386.629 45.632 388.037 45.632C389.019 45.632 390.021 46.1013 391.045 47.04C392.112 47.9787 392.987 49.1093 393.669 50.432C394.352 51.712 394.693 52.8 394.693 53.696C394.693 56.128 393.733 58.56 391.813 60.992C389.936 63.3813 387.547 65.536 384.645 67.456C385.499 68.2667 386.224 68.8853 386.821 69.312C387.419 69.7387 388.059 70.08 388.741 70.336C390.064 69.9093 391.728 69.1413 393.733 68.032C395.013 68.8 395.995 69.696 396.677 70.72C397.36 71.744 397.701 72.768 397.701 73.792C397.701 75.584 396.891 77.0773 395.269 78.272C393.648 79.424 391.621 80 389.189 80C387.184 80 385.328 79.424 383.621 78.272C381.957 77.0773 380.571 75.4987 379.461 73.536C378.395 71.5307 377.669 69.376 377.285 67.072L378.501 65.088C380.848 64.1493 382.619 63.0613 383.813 61.824C385.051 60.5867 385.669 59.4773 385.669 58.496C385.669 58.0693 385.541 57.7493 385.285 57.536C385.072 57.28 384.773 57.152 384.389 57.152C383.451 57.152 382.299 57.792 380.933 59.072C379.568 60.3093 377.669 62.2507 375.237 64.896C375.195 64.9387 374.704 65.4933 373.765 66.56C373.637 69.888 373.317 72.96 372.805 75.776C372.293 78.592 371.589 80 370.693 80C369.627 80 368.389 79.6373 366.981 78.912C365.573 78.1867 364.357 77.3333 363.333 76.352C362.352 75.328 361.861 74.4533 361.861 73.728C361.861 73.216 362.032 72.3413 362.373 71.104C362.715 69.824 363.12 68.416 363.589 66.88C365.253 61.4187 366.555 56.5333 367.493 52.224C368.005 49.8347 368.453 47.36 368.837 44.8C369.435 41.3867 369.947 38.7627 370.373 36.928C370.8 35.0933 371.333 33.5573 371.973 32.32C372.656 31.04 373.488 30.4 374.469 30.4C375.195 30.4 376.261 30.848 377.669 31.744C379.12 32.5973 380.4 33.6 381.509 34.752C382.619 35.8613 383.173 36.7787 383.173 37.504C383.173 38.144 382.939 38.8693 382.469 39.68C382.043 40.448 381.317 41.5573 380.293 43.008C380.08 43.3067 379.675 43.904 379.077 44.8C378.523 45.696 378.117 46.4427 377.861 47.04C377.349 48.2773 376.773 49.856 376.133 51.776C375.536 53.696 375.024 55.5733 374.597 57.408L375.749 58.048Z" fill="white"/>
</svg>
