<svg width="48" height="48" viewBox="0 0 48 48" fill="none" xmlns="http://www.w3.org/2000/svg">
<path d="M24 22.175L27.9 18.3C28.0833 18.1166 28.3125 18.0208 28.5875 18.0125C28.8625 18.0041 29.1 18.1 29.3 18.3C29.4833 18.4833 29.575 18.7166 29.575 19C29.575 19.2833 29.4833 19.5166 29.3 19.7L24.7 24.3C24.6 24.4 24.4916 24.4708 24.375 24.5125C24.2583 24.5541 24.1333 24.575 24 24.575C23.8666 24.575 23.7416 24.5541 23.625 24.5125C23.5083 24.4708 23.4 24.4 23.3 24.3L18.7 19.7C18.5166 19.5166 18.4208 19.2875 18.4125 19.0125C18.4041 18.7375 18.5 18.5 18.7 18.3C18.8833 18.1166 19.1166 18.025 19.4 18.025C19.6833 18.025 19.9166 18.1166 20.1 18.3L24 22.175ZM24 28.175L27.9 24.3C28.0833 24.1166 28.3125 24.0208 28.5875 24.0125C28.8625 24.0041 29.1 24.1 29.3 24.3C29.4833 24.4833 29.575 24.7166 29.575 25C29.575 25.2833 29.4833 25.5166 29.3 25.7L24.7 30.3C24.6 30.4 24.4916 30.4708 24.375 30.5125C24.2583 30.5541 24.1333 30.575 24 30.575C23.8666 30.575 23.7416 30.5541 23.625 30.5125C23.5083 30.4708 23.4 30.4 23.3 30.3L18.7 25.7C18.5166 25.5166 18.4208 25.2875 18.4125 25.0125C18.4041 24.7375 18.5 24.5 18.7 24.3C18.8833 24.1166 19.1166 24.025 19.4 24.025C19.6833 24.025 19.9166 24.1166 20.1 24.3L24 28.175Z" fill="black"/>
</svg>
