<svg width="48" height="48" viewBox="0 0 48 48" fill="none" xmlns="http://www.w3.org/2000/svg">
<mask id="mask0_25_142" style="mask-type:alpha" maskUnits="userSpaceOnUse" x="12" y="12" width="24" height="24">
<rect x="12" y="12" width="24" height="24" fill="#D9D9D9"/>
</mask>
<g mask="url(#mask0_25_142)">
<path d="M17 16H31C31.2833 16 31.5208 16.0958 31.7125 16.2875C31.9042 16.4792 32 16.7167 32 17C32 17.2833 31.9042 17.5208 31.7125 17.7125C31.5208 17.9042 31.2833 18 31 18H17C16.7167 18 16.4792 17.9042 16.2875 17.7125C16.0958 17.5208 16 17.2833 16 17C16 16.7167 16.0958 16.4792 16.2875 16.2875C16.4792 16.0958 16.7167 16 17 16ZM17 32C16.7167 32 16.4792 31.9042 16.2875 31.7125C16.0958 31.5208 16 31.2833 16 31V26H15.825C15.5083 26 15.25 25.8792 15.05 25.6375C14.85 25.3958 14.7833 25.1167 14.85 24.8L15.85 19.8C15.9 19.5667 16.0167 19.375 16.2 19.225C16.3833 19.075 16.5917 19 16.825 19H31.175C31.4083 19 31.6167 19.075 31.8 19.225C31.9833 19.375 32.1 19.5667 32.15 19.8L33.15 24.8C33.2167 25.1167 33.15 25.3958 32.95 25.6375C32.75 25.8792 32.4917 26 32.175 26H32V31C32 31.2833 31.9042 31.5208 31.7125 31.7125C31.5208 31.9042 31.2833 32 31 32C30.7167 32 30.4792 31.9042 30.2875 31.7125C30.0958 31.5208 30 31.2833 30 31V26H26V31C26 31.2833 25.9042 31.5208 25.7125 31.7125C25.5208 31.9042 25.2833 32 25 32H17ZM18 30H24V26H18V30ZM17.05 24H30.95L30.35 21H17.65L17.05 24Z" fill="#E3E3E3"/>
</g>
</svg>
